<mxfile host="app.diagrams.net" modified="2021-12-17T18:23:37.697Z" agent="5.0 (Windows NT 10.0; Win64; x64) AppleWebKit/537.36 (KHTML, like Gecko) Chrome/96.0.4664.110 Safari/537.36" etag="6v568ypwvujJz1hSthyF" version="16.0.0" type="github">
  <diagram id="nL8UHNnKVzegov5zIRWz" name="Page-1">
    <mxGraphModel dx="942" dy="713" grid="1" gridSize="10" guides="1" tooltips="1" connect="1" arrows="1" fold="1" page="1" pageScale="1" pageWidth="827" pageHeight="1169" math="0" shadow="0">
      <root>
        <mxCell id="0" />
        <mxCell id="1" parent="0" />
        <mxCell id="eF_6_lKzHzT5u7AOoneq-1" value="" style="sketch=0;points=[[0,0,0],[0.25,0,0],[0.5,0,0],[0.75,0,0],[1,0,0],[0,1,0],[0.25,1,0],[0.5,1,0],[0.75,1,0],[1,1,0],[0,0.25,0],[0,0.5,0],[0,0.75,0],[1,0.25,0],[1,0.5,0],[1,0.75,0]];outlineConnect=0;fontColor=#232F3E;gradientColor=#F78E04;gradientDirection=north;fillColor=#D05C17;strokeColor=#ffffff;dashed=0;verticalLabelPosition=bottom;verticalAlign=top;align=center;html=1;fontSize=12;fontStyle=0;aspect=fixed;shape=mxgraph.aws4.resourceIcon;resIcon=mxgraph.aws4.ec2;" vertex="1" parent="1">
          <mxGeometry x="670" y="146" width="58" height="58" as="geometry" />
        </mxCell>
        <mxCell id="eF_6_lKzHzT5u7AOoneq-2" value="" style="shape=image;html=1;verticalAlign=top;verticalLabelPosition=bottom;labelBackgroundColor=#ffffff;imageAspect=0;aspect=fixed;image=https://cdn2.iconfinder.com/data/icons/perqui/48/minecraft.png" vertex="1" parent="1">
          <mxGeometry x="690" y="204" width="48" height="48" as="geometry" />
        </mxCell>
        <mxCell id="eF_6_lKzHzT5u7AOoneq-3" value="Minecraft server" style="text;html=1;align=center;verticalAlign=middle;resizable=0;points=[];autosize=1;strokeColor=none;fillColor=none;" vertex="1" parent="1">
          <mxGeometry x="690" y="270" width="100" height="20" as="geometry" />
        </mxCell>
        <mxCell id="eF_6_lKzHzT5u7AOoneq-12" style="edgeStyle=orthogonalEdgeStyle;rounded=0;orthogonalLoop=1;jettySize=auto;html=1;exitX=1;exitY=0.5;exitDx=0;exitDy=0;entryX=0;entryY=0.5;entryDx=0;entryDy=0;entryPerimeter=0;" edge="1" parent="1" source="eF_6_lKzHzT5u7AOoneq-4" target="eF_6_lKzHzT5u7AOoneq-7">
          <mxGeometry relative="1" as="geometry">
            <mxPoint x="354.5" y="120" as="targetPoint" />
          </mxGeometry>
        </mxCell>
        <mxCell id="eF_6_lKzHzT5u7AOoneq-14" style="edgeStyle=orthogonalEdgeStyle;rounded=0;orthogonalLoop=1;jettySize=auto;html=1;exitX=1;exitY=0.5;exitDx=0;exitDy=0;exitPerimeter=0;entryX=0.5;entryY=0;entryDx=0;entryDy=0;entryPerimeter=0;" edge="1" parent="1" source="eF_6_lKzHzT5u7AOoneq-7" target="eF_6_lKzHzT5u7AOoneq-1">
          <mxGeometry relative="1" as="geometry" />
        </mxCell>
        <mxCell id="eF_6_lKzHzT5u7AOoneq-7" value="" style="outlineConnect=0;dashed=0;verticalLabelPosition=bottom;verticalAlign=top;align=center;html=1;shape=mxgraph.aws3.lambda_function;fillColor=#F58534;gradientColor=none;" vertex="1" parent="1">
          <mxGeometry x="550" y="90" width="59" height="60" as="geometry" />
        </mxCell>
        <mxCell id="eF_6_lKzHzT5u7AOoneq-16" style="edgeStyle=orthogonalEdgeStyle;rounded=0;orthogonalLoop=1;jettySize=auto;html=1;" edge="1" parent="1" source="eF_6_lKzHzT5u7AOoneq-8" target="eF_6_lKzHzT5u7AOoneq-4">
          <mxGeometry relative="1" as="geometry">
            <Array as="points">
              <mxPoint x="387" y="120" />
            </Array>
          </mxGeometry>
        </mxCell>
        <mxCell id="eF_6_lKzHzT5u7AOoneq-17" style="edgeStyle=orthogonalEdgeStyle;rounded=0;orthogonalLoop=1;jettySize=auto;html=1;entryX=0;entryY=0.75;entryDx=0;entryDy=0;" edge="1" parent="1" source="eF_6_lKzHzT5u7AOoneq-8" target="eF_6_lKzHzT5u7AOoneq-2">
          <mxGeometry relative="1" as="geometry">
            <mxPoint x="390" y="260" as="sourcePoint" />
            <Array as="points">
              <mxPoint x="390" y="240" />
            </Array>
          </mxGeometry>
        </mxCell>
        <mxCell id="eF_6_lKzHzT5u7AOoneq-8" value="Client" style="sketch=0;outlineConnect=0;fontColor=#232F3E;gradientColor=none;strokeColor=#232F3E;fillColor=#ffffff;dashed=0;verticalLabelPosition=bottom;verticalAlign=top;align=center;html=1;fontSize=12;fontStyle=0;aspect=fixed;shape=mxgraph.aws4.resourceIcon;resIcon=mxgraph.aws4.client;" vertex="1" parent="1">
          <mxGeometry x="352" y="150.5" width="69" height="69" as="geometry" />
        </mxCell>
        <mxCell id="eF_6_lKzHzT5u7AOoneq-4" value="" style="shape=image;html=1;verticalAlign=top;verticalLabelPosition=bottom;labelBackgroundColor=#ffffff;imageAspect=0;aspect=fixed;image=https://cdn1.iconfinder.com/data/icons/social-media-outline-6/128/SocialMedia_Discord-Outline-128.png" vertex="1" parent="1">
          <mxGeometry x="432" y="88" width="64" height="64" as="geometry" />
        </mxCell>
        <mxCell id="eF_6_lKzHzT5u7AOoneq-15" value="" style="shape=image;html=1;verticalAlign=top;verticalLabelPosition=bottom;labelBackgroundColor=#ffffff;imageAspect=0;aspect=fixed;image=https://cdn2.iconfinder.com/data/icons/perqui/48/minecraft.png" vertex="1" parent="1">
          <mxGeometry x="332" y="131" width="38" height="38" as="geometry" />
        </mxCell>
        <mxCell id="eF_6_lKzHzT5u7AOoneq-18" value="discord bot" style="text;html=1;align=center;verticalAlign=middle;resizable=0;points=[];autosize=1;strokeColor=none;fillColor=none;" vertex="1" parent="1">
          <mxGeometry x="432" y="70" width="70" height="20" as="geometry" />
        </mxCell>
        <mxCell id="eF_6_lKzHzT5u7AOoneq-19" value="lambda関数" style="text;html=1;align=center;verticalAlign=middle;resizable=0;points=[];autosize=1;strokeColor=none;fillColor=none;" vertex="1" parent="1">
          <mxGeometry x="550" y="70" width="80" height="20" as="geometry" />
        </mxCell>
      </root>
    </mxGraphModel>
  </diagram>
</mxfile>
